<?xml version="1.0" encoding="utf-8"?>
<!-- Generator: Adobe Illustrator 16.0.0, SVG Export Plug-In . SVG Version: 6.00 Build 0)  -->
<!DOCTYPE svg PUBLIC "-//W3C//DTD SVG 1.1//EN" "http://www.w3.org/Graphics/SVG/1.1/DTD/svg11.dtd">
<svg version="1.1" id="Layer_1" xmlns="http://www.w3.org/2000/svg" xmlns:xlink="http://www.w3.org/1999/xlink" x="0px" y="0px"
	 width="512px" height="512px" viewBox="0 0 512 512" enable-background="new 0 0 512 512" xml:space="preserve">
<g>
	<path fill="#74787C" d="M190.361,0.75c9.137,1.587,18.423,2.586,27.387,4.857c55.352,14.027,97.036,61.435,103.307,118.159
		c1.582,14.302,1.549,28.906,0.848,43.302c-0.637,13.028-8.325,22.291-20.452,27.035c-3.966,1.552-4.782,3.449-4.688,7.187
		c0.221,8.806,0.104,17.621,0.069,26.433c-0.14,34.109-21.549,58.44-55.795,63.861c3.024,1.484,5.907,3.468,9.095,4.364
		c20.932,5.882,41.883,11.692,62.912,17.2c16.876,4.422,30.748,12.982,40.905,27.391c0.972,1.378,3.503,2.3,5.327,2.327
		c13.299,0.194,26.6,0.086,39.9,0.108c14.378,0.024,23.046,8.459,23.091,22.852c0.102,32.254,0.096,64.51-0.047,96.763
		c-0.019,3.852,0.786,5.703,4.873,6.891c9.173,2.662,14.944,11.387,14.735,20.835c-0.203,9.152-6.345,17.298-15.195,20.157
		c-1.252,0.403-2.499,0.818-3.749,1.229c-133.393,0-266.786,0-400.179,0C11.45,508.84,4.136,501.849,0.75,490.744
		c0-40.251,0-80.502,0-120.753c0.289-0.929,0.666-1.839,0.852-2.789c5.488-28.027,22.082-45.672,49.576-53.216
		c20.958-5.752,41.913-11.521,62.813-17.471c3.754-1.07,7.242-3.076,10.854-4.651c-0.146-0.46-0.294-0.919-0.442-1.376
		c-15.145-1.434-28.14-7.402-38.73-18.287c-10.728-11.026-15.972-24.534-17.085-39.721c-1.145-0.094-1.794-0.181-2.443-0.195
		c-16.115-0.365-23.104-7.563-23.118-23.837c-0.011-13.795-0.199-27.593,0.043-41.384c0.269-15.269-0.167-30.663,1.631-45.772
		c6.682-56.154,50.63-104.187,105.75-116.464c7.893-1.758,15.957-2.738,23.943-4.078C179.716,0.75,185.039,0.75,190.361,0.75z
		 M197.254,467.746c70.307,0,139.901,0,209.757,0c0.12-1.211,0.299-2.17,0.301-3.132c0.017-32.922,0.045-65.847-0.015-98.769
		c-0.013-6.141-2.104-7.898-8.778-7.898c-64.185-0.01-128.368-0.012-192.551,0c-6.973,0-8.689,1.779-8.702,8.947
		c-0.021,12.138,0.033,24.275-0.024,36.414c-0.027,5.755-2.978,9.273-7.534,9.271c-4.591-0.001-7.36-3.429-7.407-9.281
		c-0.042-5.425-0.009-10.847-0.009-16.436c-2.827-0.2-4.973-0.357-7.119-0.502c-38.79-2.613-70.706-18.813-96.271-48.079
		c-3.913-4.479-5.275-12.726-12.313-12.736c-6.062-0.009-12.243,2.784-18.169,4.902c-18.879,6.749-32.425,25.017-32.575,44.827
		c-0.279,36.58-0.109,73.162-0.037,109.743c0.015,7.256,4.199,11.388,11.545,11.489c9.975,0.141,19.953,0.04,29.929,0
		c0.764-0.003,1.526-0.352,2.591-0.611c0-13.445-0.067-26.733,0.034-40.021c0.04-5.352,3.175-8.778,7.547-8.759
		c4.422,0.018,7.322,3.358,7.356,8.815c0.072,11.64,0.015,23.279,0.037,34.918c0.003,1.767,0.147,3.531,0.228,5.299
		c29.687,0,58.849,0,87.925,0c0.169-0.715,0.336-1.039,0.304-1.344c-1.463-14.102,3.258-21.479,16.43-26.229
		c1.166-0.42,2.405-2.518,2.444-3.866c0.232-7.976,0.126-15.96,0.117-23.941c-0.004-4.192,1.839-7.076,6.042-7.924
		c4.966-1.001,8.79,2.44,8.881,8.127C197.358,449.757,197.254,458.543,197.254,467.746z M251.931,137.738
		c-11.858,0-23.309-0.103-34.758,0.021c-24.657,0.265-45.254-8.997-62.465-26.333c-1.231-1.24-2.402-2.539-3.813-4.035
		c-7.369,15.509-18.697,25.39-35.042,29.361c-1.207,0.293-2.694,2.726-2.698,4.168c-0.043,15.632-0.057,31.272,0.468,46.892
		c0.185,5.499,1.871,10.946,2.812,16.097c12.6,0,24.228-0.188,35.847,0.049c14.228,0.29,23.942,12.299,21.008,25.958
		c-1.925,8.959-8.04,14.167-16.87,17.415c7.171,3.094,14.334,6.168,21.813,7.788c10.695,2.314,20.292-2.193,29.403-7.11
		c23.528-12.699,41.294-30.467,43.993-58.323C253.27,172.74,251.931,155.508,251.931,137.738z M147.183,258.782
		c-0.13,2.795-0.217,4.53-0.291,6.267c-0.252,5.967,0.323,12.112-0.916,17.869c-2.955,13.732-11.508,23.025-25.032,27.148
		c-11.981,3.651-24.114,6.811-36.326,10.227c22.181,33.991,65.808,52.855,97.465,50.768c0.067-1.429,0.186-2.893,0.199-4.358
		c0.144-15.451,8.382-23.718,23.695-23.728c16.786-0.013,33.572,0.014,50.357-0.029c1.615-0.004,3.83,0.244,4.746-0.659
		c6.967-6.882,13.681-14.021,21.296-21.933c-12.681-3.455-23.54-6.449-34.418-9.367c-18.724-5.022-29.027-18.266-29.222-37.687
		c-0.044-4.414-0.007-8.825-0.007-14.562C194.587,273.902,171.165,274.291,147.183,258.782z M279.758,122.183
		c-0.287-1.644-0.479-3.281-0.869-4.87c-13.199-53.405-68.097-85.958-121.268-71.923c-10.322,2.724-10.928,3.561-10.375,14.307
		c1.506,29.337,24.516,57.475,54.873,61.195C227.604,124.014,253.724,121.949,279.758,122.183z M68.665,179.935
		c0-12.296-0.152-23.707,0.056-35.112c0.128-6.966,0.194-14.026,1.342-20.867c9.358-55.801,53.321-94.397,109.796-96.693
		c55.753-2.266,107.629,40.272,115.083,95.556c2.254,16.697,1.354,33.819,1.881,50.748c0.057,1.865,0.008,3.734,0.008,6.289
		c6.559-3.494,10.314-8.087,10.233-14.253c-0.212-15.751,0.502-31.761-2.048-47.189c-8.799-53.248-51.376-93.353-105.901-101.392
		C148.134,9.505,95.98,36.929,71.785,83.518c-13.573,26.137-15.022,54.062-13.366,82.533
		C58.769,172.069,62.331,176.457,68.665,179.935z M302.057,496.552c37.911,0,75.823,0.001,113.733-0.006
		c1.661,0,3.361,0.151,4.977-0.139c3.695-0.665,6.083-2.851,6.014-6.768c-0.065-3.652-2.313-5.767-5.828-6.405
		c-1.456-0.267-2.979-0.216-4.474-0.216c-76.152-0.01-152.309-0.012-228.463,0.013c-1.813,0-4.112-0.35-5.329,0.583
		c-2.027,1.552-4.607,3.994-4.636,6.093c-0.029,2.101,2.445,4.695,4.469,6.204c1.347,1.003,3.83,0.618,5.804,0.62
		C226.233,496.559,264.146,496.552,302.057,496.552z M233.686,275.125c20.657,1.975,40.563-11.662,46.091-31.62
		c4.226-15.252,1.356-30.936,2.147-46.962c-4.989,0-9.28-0.208-13.526,0.142c-1.09,0.09-2.678,1.791-2.953,2.999
		c-4.295,18.852-14.567,33.943-28.778,46.666c-1.261,1.131-2.797,2.82-2.848,4.296C233.541,258.739,233.686,266.852,233.686,275.125
		z M130.557,57.363c-19.728,8.815-43.756,43.4-44.526,65.271c7.115,0,14.233,0.234,21.331-0.049
		c14.503-0.577,27.184-10.782,30.767-24.785c0.796-3.11,1.333-6.673,0.625-9.71C136.373,77.847,133.379,67.748,130.557,57.363z
		 M131.903,274.953c0-7.046,0.01-13.84-0.002-20.633c-0.012-7.196-0.123-7.391-7.174-7.387c-9.584,0.004-17.062-3.497-21.663-12.283
		c-0.516-0.986-1.749-2.219-2.692-2.257c-5.436-0.214-10.883-0.104-16.32-0.104C84.094,256.926,108.379,278.663,131.903,274.953z
		 M267.473,181.288c4.947,0,9.375,0,13.924,0c0-14.589,0-28.9,0-43.244c-4.873,0-9.275,0-13.924,0
		C267.473,152.563,267.473,166.756,267.473,181.288z M97.849,181.348c0-14.792,0-28.973,0-43.321c-4.89,0-9.282,0-13.851,0
		c0,14.618,0,28.925,0,43.321C88.803,181.348,93.242,181.348,97.849,181.348z M283.063,342.668c17.857,0,35.034,0,52.877,0
		c-1.049-1.212-1.608-1.975-2.282-2.619c-9.856-9.434-22.709-11.953-35.257-15.122c-0.828-0.211-2.301,0.37-2.846,1.071
		C291.416,331.333,287.434,336.79,283.063,342.668z M137.398,218.89c-4.806,0-9.612-0.028-14.418,0.008
		c-4.088,0.031-6.632,2.038-7.013,6.168c-0.344,3.749,2.514,6.704,6.944,6.789c9.608,0.184,19.225,0.182,28.833,0.003
		c4.552-0.085,7.205-2.83,6.96-6.716c-0.286-4.544-3.178-6.247-7.385-6.26C146.678,218.866,142.038,218.878,137.398,218.89z
		 M83.893,217.301c5.663,0,11.11,0.312,16.476-0.217c1.369-0.134,3.754-3.21,3.482-4.453c-1.186-5.407-3.18-10.635-4.83-15.772
		c-5.157,0-10.051,0-15.128,0C83.893,203.727,83.893,210.262,83.893,217.301z M57.993,191.728c0,5.983-0.006,11.252,0.001,16.521
		c0.013,8.659,1.77,10.094,10.477,8.415c0-6.865,0-13.76,0-20.649C65.142,194.652,61.984,193.359,57.993,191.728z"/>
	<path fill="#74787C" d="M387.956,0.75c0.87,0.708,2.2,1.252,2.521,2.155c0.941,2.646,2.553,5.756,1.857,8.07
		c-0.615,2.044-3.816,4.272-6.154,4.638c-4.709,0.739-9.608,0.205-14.428,0.304c-16.067,0.329-27.675,11.798-27.859,27.763
		c-0.157,13.796-0.126,27.596-0.009,41.394c0.113,13.214,7.242,22.686,19.826,26.731c10.835,3.484,15,9.155,15.067,20.556
		c0.024,4.303,0.004,8.606,0.004,14.017c1.57-1.811,2.546-2.788,3.351-3.887c5.007-6.838,10.091-13.623,14.922-20.582
		c4.36-6.283,10.229-9.117,17.798-9.08c17.288,0.084,34.577,0.063,51.865,0.014c18.883-0.051,29.992-11.222,30.014-30.104
		c0.014-12.801,0.064-25.604-0.014-38.402c-0.102-16.478-11.764-28.243-28.302-28.401c-15.126-0.145-30.256-0.098-45.383,0.006
		c-4.481,0.029-8.563-0.556-9.908-5.522c-1.337-4.943,1.639-7.754,5.769-9.667c18.297,0,36.593,0,54.889,0
		c1.075,0.334,2.134,0.755,3.229,0.989c15.055,3.2,25.621,11.89,31.602,26.032c1.34,3.17,2.075,6.595,3.091,9.903
		c0,17.963,0,35.926,0,53.889c-0.761,2.515-1.448,5.055-2.291,7.541c-5.563,16.381-20.522,28.028-37.82,28.48
		c-18.283,0.478-36.586,0.303-54.879,0.148c-3.953-0.033-6.422,1.251-8.675,4.449c-7.752,11.006-15.759,21.834-23.696,32.711
		c-4.103,5.619-7.963,7.259-13.063,5.658c-5.104-1.603-7.428-5.301-7.455-12.063c-0.038-8.648-0.108-17.299,0.036-25.943
		c0.059-3.464-0.972-5.316-4.57-6.473c-19.29-6.193-30.221-21.215-30.385-41.433c-0.107-13.304-0.095-26.611-0.004-39.916
		c0.153-22.784,13.726-38.868,36.295-43.205c0.626-0.121,1.203-0.507,1.804-0.769C373.984,0.75,380.97,0.75,387.956,0.75z"/>
	<path fill="#74787C" d="M420.357,40.49c13.62-0.001,27.24-0.029,40.861,0.012c5.857,0.018,9.282,2.808,9.287,7.375
		c0.004,4.519-3.539,7.544-9.264,7.556c-27.407,0.047-54.816,0.053-82.225-0.007c-5.715-0.012-9.13-3.129-8.986-7.766
		c0.137-4.442,3.397-7.133,8.964-7.152C392.781,40.457,406.569,40.49,420.357,40.49z"/>
	<path fill="#74787C" d="M420.379,73.421c13.621,0,27.242-0.03,40.864,0.013c5.849,0.02,9.274,2.832,9.264,7.402
		c-0.009,4.525-3.546,7.519-9.284,7.528c-27.242,0.046-54.485,0.043-81.728,0.004c-6.096-0.009-9.622-3.019-9.463-7.794
		c0.151-4.542,3.507-7.127,9.48-7.143C393.136,73.398,406.758,73.421,420.379,73.421z"/>
</g>
</svg>
