<?xml version="1.0" encoding="utf-8"?>
<!-- Generator: Adobe Illustrator 16.0.0, SVG Export Plug-In . SVG Version: 6.00 Build 0)  -->
<!DOCTYPE svg PUBLIC "-//W3C//DTD SVG 1.1//EN" "http://www.w3.org/Graphics/SVG/1.1/DTD/svg11.dtd">
<svg version="1.1" id="Layer_1" xmlns="http://www.w3.org/2000/svg" xmlns:xlink="http://www.w3.org/1999/xlink" x="0px" y="0px"
	 width="945px" height="300px" viewBox="0 0 945 300" enable-background="new 0 0 945 300" xml:space="preserve">
<g>
	<path fill-rule="evenodd" clip-rule="evenodd" fill="#1B1B9A" d="M946,148c-0.991,0.305-0.978,1.191-1.18,1.979
		c-6.033,23.622-21.349,37.721-44.802,43.156c-19.244,4.46-38.569,4.639-57.84-0.038c-9.337-2.266-17.825-6.308-25.341-12.349
		c-1.156-0.93-2.054-2.723-4.091-0.852c-11.688,10.737-26.081,15.005-41.399,16.534c-17.502,1.748-34.922,1.463-51.767-4.542
		c-24.265-8.651-42.479-34.604-41.539-59.04c4.144-3.208,9.189-2.322,13.828-2.686c7.321-0.574,14.606-2.741,22.04-1.046
		c2.011,2.965,1.969,6.575,3.067,9.835c5.532,16.412,17.252,25.396,34.563,26.121c8.706,0.365,17.391,0.074,25.419-3.844
		c8.588-4.19,14.522-10.548,15.257-20.597c0.641-8.773-3.688-14.601-11.343-18.185c-10.021-4.693-20.858-6.776-31.477-9.519
		c-10.963-2.831-21.906-5.69-32.239-10.434c-22.699-10.42-34.174-29.023-32.301-52.293c1.683-20.91,16.651-37.945,39.738-44.2
		c20.369-5.518,40.855-5.116,61.149,0.841c8.779,2.577,16.508,7.031,22.993,13.542c1.31,1.314,2.214,2.733,4.26,0.492
		c12.015-13.16,27.876-17.437,44.848-19.005c6.993-0.825,14.013-0.129,21.01-0.359c21.564-0.321,39.652,6.958,52.654,24.712
		c5.26,7.182,8.517,15.393,9.549,24.294c0.364,3.143,1.36,6.65-1.703,9.282c-11.712,1.074-23.412,2.395-35.198,1.424
		c-2.284-0.409-3.463-2.053-3.862-4.088c-3.731-19.02-17.492-23.268-35.572-22.675c-6.798,0.224-13.574,1.433-19.608,5.101
		c-8.973,5.455-10.016,14.387-2.537,21.635c3.079,2.984,6.86,4.604,10.795,6.039c11.435,4.172,23.299,6.819,35.007,10.031
		c9.785,2.685,19.677,5.31,28.68,10.062C933.793,96.166,944.76,109.273,946,129C946,135.333,946,141.667,946,148z"/>
	<path fill-rule="evenodd" clip-rule="evenodd" fill="#2C2C2C" d="M905,301c-1.254-3.727,0.056-4.896,3.971-4.971
		c8.734-0.167,11.866-4.008,11.012-12.939c-1.181,0.742-2.22,1.493-3.342,2.087c-7.72,4.084-17.353,0.12-19.626-8.3
		c-1.627-6.028-1.656-12.252-0.026-18.277c2.432-8.996,12.281-12.902,20.329-8.141c1.77,1.047,2.667,2.081,3.684-0.713
		c0.49-1.345,2.401-0.727,3.636-0.49c1.224,0.233,1.184,1.438,1.181,2.435c-0.043,11.988,0.111,23.982-0.223,35.963
		c-0.204,7.32-5.251,11.044-11.595,13.347C911,301,908,301,905,301z"/>
	<path fill-rule="evenodd" clip-rule="evenodd" fill="#1B1B9A" d="M672.648,193.909c-12.383,0-24.702-0.082-37.019,0.063
		c-2.823,0.033-3.149-1.79-3.839-3.641c-4.414-11.849-8.936-23.658-13.2-35.561c-1.002-2.798-2.291-3.796-5.341-3.775
		c-22.16,0.146-44.322,0.166-66.482-0.014c-3.359-0.027-4.571,1.28-5.557,4.147c-4.057,11.8-8.308,23.532-12.51,35.281
		c-0.656,1.837-1.058,3.617-3.896,3.576c-12.153-0.174-24.311-0.074-37.127-0.074c1.898-5.035,3.619-9.664,5.386-14.276
		c21.651-56.555,43.328-113.1,64.906-169.683c1.078-2.827,2.235-4.192,5.573-4.113c10.658,0.252,21.326,0.134,31.99,0.062
		c2.324-0.016,3.861,0.215,4.907,2.884c24.033,61.338,48.188,122.629,72.311,183.932
		C672.804,192.852,672.729,193.036,672.648,193.909z"/>
	<path fill-rule="evenodd" clip-rule="evenodd" fill="#1B1B9A" d="M353.164,99.61c0-29.646,0.08-59.294-0.095-88.939
		c-0.023-3.972,1.05-4.874,4.947-4.838c24.148,0.22,48.3,0.171,72.45,0.145c7.179-0.009,14.34,0.41,21.41,1.479
		c21.264,3.216,37.694,19.317,41.783,41.425c2.808,15.178,2.243,30.183-5.264,44.257c-9.706,18.196-25.189,27.074-45.431,28.841
		c-15.803,1.38-31.616,1.161-47.429,1.012c-4.099-0.039-4.871,1.274-4.841,5.028c0.169,20.485,0.006,40.973,0.154,61.458
		c0.025,3.396-0.734,4.618-4.364,4.521c-9.653-0.258-19.322-0.247-28.977-0.004c-3.531,0.089-4.441-0.952-4.425-4.446
		C353.223,159.57,353.164,129.59,353.164,99.61z"/>
	<path fill-rule="evenodd" clip-rule="evenodd" fill="#FE0000" d="M1.825,111.059c0.003-6.705,0.006-13.41,0.009-20.115
		C3.198,69.961,8,50.1,21.369,33.227C36.253,14.44,55.698,4.218,79.702,2.795c15.13-0.896,29.968,0.084,44.005,6.519
		c19.782,9.068,31.751,24.644,37.826,45.209c0.683,2.311,0.39,3.148-2.092,3.719c-10.376,2.387-20.706,4.978-31.032,7.576
		c-2.161,0.544-3.22,0.195-3.878-2.207c-5.237-19.13-20.931-28.814-39.075-28.558c-19.083,0.27-34.499,10.691-40.399,29.196
		c-7.76,24.335-7.713,49.121,0.953,73.121c10.376,28.737,47.866,36.709,67.723,15.071c6.358-6.928,9.765-15.429,12.007-24.387
		c0.694-2.773,1.46-3.491,4.33-2.536c9.94,3.307,19.974,6.334,29.977,9.451c1.611,0.503,3.111,0.616,2.323,3.238
		c-7.908,26.329-22.063,47.475-49.923,55.115c-55.278,15.162-101.594-16.37-109.42-70.842
		C2.483,118.694,2.219,114.867,1.825,111.059z"/>
	<path fill-rule="evenodd" clip-rule="evenodd" fill="#FE0000" d="M255.99,54.842c43.445,0.034,74.478,36.349,68.597,80.272
		c-4.152,31.013-23.55,53.886-51.782,60.269c-21.532,4.868-41.672,0.948-60.031-11.396c-8.055-5.417-14.128-12.702-18.203-21.47
		c-9.371-20.164-11.257-41.044-4.081-62.184C200.614,70.514,223.615,54.815,255.99,54.842z"/>
	<path fill-rule="evenodd" clip-rule="evenodd" fill="#1C1C9B" d="M142.174,251.724c7.485-5.794,13.182-5.209,20.31,1.891
		c4.892-5.463,9.676-7.011,15.433-4.938c6.265,2.256,7.565,7.47,7.655,13.25c0.108,6.992-0.12,13.991,0.083,20.979
		c0.143,4.912-3.295,3.49-5.84,3.653c-2.542,0.162-4.991,0.437-4.818-3.598c0.271-6.315,0.088-12.652,0.055-18.979
		c-0.019-3.679-1.095-6.833-5.4-6.964c-4.535-0.139-5.944,2.924-5.958,6.916c-0.022,6.328-0.197,12.662,0.045,18.98
		c0.171,4.464-2.764,3.672-5.324,3.646c-2.516-0.024-5.515,0.9-5.332-3.618c0.256-6.317,0.059-12.653,0.06-18.98
		c0-4.012-1.412-7.033-5.928-6.95c-4.241,0.079-5.54,2.986-5.522,6.801c0.03,6.327-0.189,12.663,0.07,18.98
		c0.2,4.864-3.099,3.636-5.718,3.782c-2.81,0.157-5.155,0.293-5.024-3.952c0.299-9.648,0.021-19.313,0.159-28.97
		c0.026-1.827-1.41-5.098,2.096-5.015C136.416,248.714,140.877,245.994,142.174,251.724z"/>
	<path fill-rule="evenodd" clip-rule="evenodd" fill="#1B1B9B" d="M192.839,267.022c0-4.664-0.09-9.331,0.05-13.99
		c0.048-1.597-1.072-4.339,1.74-4.353c2.829-0.014,6.643-2.126,8.358,1.583c1,2.162,1.34,0.92,2.214,0.396
		c7.002-4.198,11.293-3.926,17.397,1.713c1.651,1.525,1.989,0.709,2.954-0.333c4.125-4.459,9.196-5.188,14.602-3.059
		c5.399,2.128,6.937,6.776,6.942,12.145c0.008,7.329-0.165,14.664,0.075,21.985c0.137,4.175-2.559,3.542-4.953,3.43
		c-2.362-0.11-5.646,1.268-5.496-3.397c0.199-6.156,0.104-12.325,0.021-18.487c-0.07-5.214-2.076-7.904-5.798-7.673
		c-4.848,0.302-5.758,3.753-5.76,7.768c-0.003,5.663-0.284,11.345,0.089,16.983c0.276,4.171-1.347,5.089-5.133,4.941
		c-3.369-0.132-5.728-0.122-5.362-4.718c0.449-5.627,0.142-11.318,0.093-16.98c-0.046-5.45-2.093-8.245-6.006-7.997
		c-4.872,0.308-5.718,3.741-5.69,7.776c0.038,5.496-0.224,11.007,0.088,16.485c0.227,3.982-0.772,5.444-5.119,5.515
		c-4.632,0.076-5.706-1.516-5.385-5.748C193.11,276.37,192.839,271.686,192.839,267.022z"/>
	<path fill-rule="evenodd" clip-rule="evenodd" fill="#1B1C9B" d="M392.362,251.084c0-4.684,0.104-8.828-0.027-12.966
		c-0.15-4.716,3.315-3.108,5.604-3.216c2.269-0.106,5.094-1.039,5.049,3.249c-0.159,14.963-0.053,29.928-0.076,44.892
		c-0.002,1.249,0.445,3.115-1.359,3.25c-2.995,0.224-6.387,1.551-8.861-1.002c-1.015-1.047-1.202-1.557-2.442-0.503
		c-6.089,5.171-16.938,1.414-20.218-6.637c-2.746-6.741-2.951-13.648-0.377-20.432C373.282,248.161,382.68,245.205,392.362,251.084z
		"/>
	<path fill-rule="evenodd" clip-rule="evenodd" fill="#FE0000" d="M45.022,260.254c0-3.497-0.252-7.017,0.049-10.487
		c0.771-8.86,7.471-14.775,17.283-15.56c9.883-0.789,18.238,4.296,20.233,12.57c0.421,1.745,2.109,5.135-1.273,5.05
		c-2.817-0.071-7.269,3.985-8.866-2.308c-1.18-4.651-4.861-6.848-9.393-6.357c-4.548,0.491-7.551,3.433-7.741,8.298
		c-0.24,6.154-0.257,12.333,0.006,18.486c0.192,4.504,2.718,7.424,7.379,8.056c4.762,0.646,8.113-1.425,9.718-5.888
		c1.03-2.862,5.574-4.529,9.174-2.929c3.029,1.346,1.34,3.999,0.76,5.96c-2.475,8.361-10.696,12.83-21.229,11.755
		c-8.96-0.915-15.411-7.076-16.072-15.657c-0.28-3.643-0.047-7.324-0.047-10.988C45.01,260.254,45.016,260.254,45.022,260.254z"/>
	<path fill-rule="evenodd" clip-rule="evenodd" fill="#1C1C9B" d="M350.798,270.883c-2.992,0-5.991,0.12-8.976-0.032
		c-3.286-0.168-3.249,1.309-2.021,3.567c2.281,4.196,9.069,5.423,13.572,1.66c3.796-3.173,4.817,0.278,6.628,1.86
		c2.779,2.429,0.119,3.796-1.392,5.041c-11.017,9.081-27.073,3.234-29.764-10.737c-0.77-3.999-0.711-7.942,0.255-11.865
		c1.701-6.911,7.434-11.762,14.543-12.403c8.243-0.745,14.165,2.602,17.283,9.771c0.132,0.305,0.233,0.623,0.353,0.933
		c4.044,10.55,2.96,12.205-7.988,12.205C352.461,270.882,351.63,270.882,350.798,270.883z"/>
	<path fill-rule="evenodd" clip-rule="evenodd" fill="#FE0000" d="M124.389,267.279c-0.015,12.198-6.735,19.736-17.572,19.713
		c-10.917-0.022-17.703-7.539-17.714-19.62c-0.011-12.012,6.816-19.413,17.894-19.397
		C117.719,247.989,124.403,255.408,124.389,267.279z"/>
	<path fill-rule="evenodd" clip-rule="evenodd" fill="#1C1C9B" d="M277.004,268.786c-0.001-2.664-0.095-5.332,0.027-7.99
		c0.11-2.409,0.015-4.306-3.28-3.932c-2.239,0.255-2.307-1.578-2.126-3.069c0.217-1.793-1.161-4.949,1.559-5.019
		c4.652-0.12,4.131-2.974,3.757-5.659c-0.616-4.421,1.682-4.81,5.219-4.812c3.39-0.003,5.577,0.463,4.925,4.557
		c-0.625,3.92,0.185,6.444,5.115,5.664c3.713-0.587,3.072,2.369,3.231,4.651c0.188,2.717-0.692,4.246-3.628,3.725
		c-4.125-0.734-5.185,1.197-4.785,4.943c0.264,2.47,0.075,4.99,0.045,7.487c-0.051,4.104-0.504,7.997,5.793,8.126
		c3.196,0.066,1.482,3.759,1.793,5.828c0.308,2.055-0.823,2.99-2.915,3.035c-8.284,0.179-15.589,0.18-14.743-12.542
		C277.101,272.123,277.005,270.451,277.004,268.786z"/>
	<path fill-rule="evenodd" clip-rule="evenodd" fill="#1C1C9B" d="M317.166,286.357c-9.559-0.112-12.084-2.666-12.107-11.984
		c-0.013-4.831-0.066-9.664,0.025-14.493c0.038-1.979-0.303-3.252-2.682-2.974c-2.733,0.319-2.998-1.542-2.772-3.513
		c0.202-1.766-1.096-4.748,1.984-4.729c4.124,0.024,3.329-2.493,3.49-4.925c0.112-1.699-1.084-4.139,1.053-4.943
		c2.457-0.926,5.381-0.941,7.841,0.007c2.141,0.825,1.159,3.294,1.02,4.931c-0.308,3.582,0.63,5.403,4.586,4.75
		c3.727-0.616,3.785,1.792,3.889,4.579c0.116,3.115-1.037,4.336-4.039,3.848c-3.47-0.563-4.711,0.774-4.419,4.323
		c0.313,3.806,0.03,7.658,0.101,11.488c0.039,2.133,0.698,4.451,3.155,4.309c5.66-0.328,4.594,3.518,4.399,6.651
		C322.43,287.854,318.937,285.688,317.166,286.357z"/>
	<path fill-rule="evenodd" clip-rule="evenodd" fill="#2C2C2C" d="M690.418,252.86c4.893-4.457,9.927-5.26,15.273-3.421
		c6.759,2.325,9.599,8.944,9.157,20.705c-0.335,8.917-3.898,14.575-10.359,16.447c-4.495,1.302-8.35,0.387-13.843-3.5
		c-0.035,2.343-0.813,3.83-3.405,3.486c-2.936-0.389-2.099-2.529-2.104-4.165c-0.048-14.455-0.049-28.909-0.001-43.364
		c0.006-1.783-0.889-4.146,2.497-4.247c3.781-0.111,2.704,2.555,2.752,4.46C690.492,243.509,690.418,247.761,690.418,252.86z"/>
	<path fill-rule="evenodd" clip-rule="evenodd" fill="#2D2D2D" d="M570.844,272.003c0.008,3.829,0,7.659,0.012,11.489
		c0.004,1.356,0.126,2.847-1.743,2.984c-1.4,0.104-3.225,0.612-3.538-1.615c-0.421-2.983-1.656-0.989-2.516-0.418
		c-3.506,2.336-7.395,2.866-11.465,2.533c-5.495-0.45-9.126-3.633-10.076-8.755c-0.966-5.201,1.521-9.957,6.465-12.245
		c4.385-2.029,9.089-1.985,13.733-1.707c3.194,0.191,4.137-0.943,3.715-3.983c-0.452-3.259-1.741-5.721-5.099-6.63
		c-3.912-1.06-7.601-0.816-10.641,2.232c-0.568,0.57-0.799,1.467-1.325,2.095c-1.383,1.649-3.146,0.949-4.554,0.268
		c-1.822-0.882-0.546-2.303-0.012-3.377c2.465-4.956,9.791-7.434,17.228-5.901c5.748,1.185,9.423,5.17,9.765,11.044
		C571.024,263.999,570.837,268.007,570.844,272.003z"/>
	<path fill-rule="evenodd" clip-rule="evenodd" fill="#2C2C2C" d="M752.061,272.062c-0.002,3.99-0.021,7.981,0.01,11.972
		c0.009,1.291-0.207,2.411-1.768,2.414c-1.228,0.002-3.148,0.624-3.308-1.177c-0.251-2.847-1.27-1.839-2.615-0.917
		c-3.454,2.367-7.338,2.98-11.419,2.608c-5.627-0.513-9.389-3.752-10.101-8.636c-0.874-5.989,1.698-10.531,7.228-12.71
		c4.298-1.694,8.82-1.57,13.292-1.354c2.946,0.143,3.843-0.961,3.438-3.736c-0.493-3.39-1.804-6.08-5.42-6.939
		c-4.104-0.976-8.279-0.95-10.751,2.919c-1.705,2.668-3.778,3.117-5.652,1.616c-2.137-1.71,0.173-3.566,1.277-4.939
		c3.481-4.326,11.892-5.94,18.018-3.669c5.268,1.954,7.701,5.869,7.766,12.572C752.088,265.411,752.062,268.736,752.061,272.062z"/>
	<path fill-rule="evenodd" clip-rule="evenodd" fill="#2E2E2E" d="M620.545,269.673c-2.664-0.001-5.354,0.238-7.985-0.056
		c-4.062-0.455-4.923,1.229-4.065,4.859c0.879,3.72,2.82,6.458,6.542,7.448c4.243,1.129,8.315,0.682,11.508-2.751
		c1.315-1.414,2.354-3.879,4.566-1.526c2.059,2.188-0.462,3.6-1.632,4.867c-4.134,4.479-9.547,5.335-15.156,4.168
		c-5.508-1.146-8.938-4.868-10.367-10.344c-1.368-5.244-1.363-10.605-0.546-15.862c1.154-7.429,6.734-11.822,14.365-11.937
		c7.979-0.12,13.111,4.013,14.854,11.959c1.837,8.374,1.217,9.176-7.09,9.175C623.874,269.674,622.209,269.674,620.545,269.673z"/>
	<path fill-rule="evenodd" clip-rule="evenodd" fill="#2C2C2C" d="M807.896,265.097c8.243-4.534,10.761-15.216,20.602-16.271
		c0.35,0.374,0.699,0.749,1.049,1.123c-2.47,2.803-4.816,5.729-7.454,8.364c-1.707,1.705-1.796,3.153-0.791,5.241
		c2.884,5.997,5.671,12.047,8.253,18.178c0.566,1.344,3.04,3.317,0.421,4.53c-2.442,1.133-4.191-0.378-5.237-3.034
		c-2.069-5.26-4.692-10.304-6.712-15.58c-1.304-3.407-2.068-2.701-4.567-0.808c-5.413,4.104-6.12,9.406-5.605,15.451
		c0.157,1.849,0.734,4.187-2.586,4.208c-3.305,0.021-2.646-2.267-2.649-4.15c-0.023-14.499-0.026-28.997,0-43.496
		c0.003-1.865-0.681-4.122,2.688-4.059c3.396,0.063,2.555,2.389,2.566,4.204C807.925,247.591,807.896,256.185,807.896,265.097z"/>
	<path fill-rule="evenodd" clip-rule="evenodd" fill="#2C2C2C" d="M452.226,267.716c-0.167-2.666-0.086-5.309,0.569-7.928
		c1.755-7.007,7.046-11.143,14.524-11.241c7.494-0.1,12.935,3.933,14.792,10.876c1.14,4.261,1.055,8.599,0.667,12.897
		c-0.831,9.229-6.506,14.645-15.07,14.689c-8.726,0.045-14.329-5.101-15.454-14.31C452.054,271.063,452.226,269.378,452.226,267.716
		z"/>
	<path fill-rule="evenodd" clip-rule="evenodd" fill="#2C2C2C" d="M520.192,248.807c6.592-0.021,11.625,2.615,13.228,7.034
		c0.481,1.329,1.466,3.15-0.461,3.868c-1.553,0.579-3.145,0.694-4.231-1.855c-2.145-5.027-10.17-6.493-14.605-3.138
		c-3.149,2.382-3.04,6.247,0.63,8.064c3.244,1.607,6.868,2.443,10.316,3.642c7.063,2.454,9.777,5.82,9.1,11.254
		c-0.641,5.135-5.376,8.839-12.021,9.194c-5.344,0.286-10.398-0.656-13.923-5.145c-1.386-1.765-3.066-4.525-0.6-6.125
		c2.356-1.528,3.653,0.407,4.774,3.033c2.185,5.119,12.308,5.633,15.526,1.055c2.232-3.176,1.141-5.847-2.063-7.383
		c-2.825-1.354-5.931-2.131-8.923-3.133c-7.882-2.64-10.786-5.984-10.024-11.581C507.647,252.202,512.744,248.831,520.192,248.807z"
		/>
	<path fill-rule="evenodd" clip-rule="evenodd" fill="#2C2C2C" d="M768.021,253.213c3.906-4.024,7.848-4.874,12.158-4.46
		c6.225,0.599,10.628,4.727,10.872,10.973c0.312,7.982,0.093,15.983,0.165,23.977c0.016,1.788-0.433,2.798-2.476,2.831
		c-2.223,0.036-2.824-0.95-2.796-3.025c0.088-6.66,0.078-13.323,0.013-19.983c-0.066-6.636-3.34-10.393-8.866-10.352
		c-5.646,0.042-8.912,3.745-8.954,10.262c-0.041,6.495-0.032,12.99,0.003,19.484c0.01,1.931,0.133,3.657-2.685,3.629
		c-2.893-0.027-2.565-1.898-2.564-3.743c0.009-9.992-0.029-19.984,0.039-29.976c0.011-1.444-0.838-3.495,1.908-3.766
		C767.232,248.829,768.649,249.521,768.021,253.213z"/>
	<path fill-rule="evenodd" clip-rule="evenodd" fill="#2C2C2C" d="M857.701,267.527c0-5.159-0.032-10.319,0.023-15.478
		c0.013-1.216-0.414-2.956,1.687-2.912c1.31,0.027,3.272-0.852,3.466,1.569c0.174,2.17,0.835,1.337,2.027,0.641
		c11.375-6.64,21.063-1.043,21.112,12.146c0.022,6.158,0.059,12.317-0.026,18.474c-0.026,1.918,1.043,4.664-2.687,4.546
		c-3.752-0.118-2.413-2.948-2.454-4.782c-0.14-6.321,0.063-12.651-0.098-18.972c-0.156-6.103-3.813-9.785-9.149-9.591
		c-5.477,0.2-8.614,3.793-8.651,10.016c-0.039,6.491,0,12.982-0.016,19.473c-0.005,1.771,0.469,3.737-2.458,3.852
		c-3.274,0.128-2.769-2.054-2.772-4.001C857.692,277.514,857.701,272.521,857.701,267.527z"/>
	<path fill-rule="evenodd" clip-rule="evenodd" fill="#FD0101" d="M713.91,129.118c-11.956,1.244-23.912,2.488-35.868,3.731
		c3.989-7.296,9.378-13.647,13.88-20.597c1.08-1.668,1.902-1.785,3.394-0.375C701.455,117.687,707.702,123.382,713.91,129.118z"/>
	<path fill-rule="evenodd" clip-rule="evenodd" fill="#1C1C9B" d="M255.031,267.098c0-4.996,0.234-10.006-0.068-14.983
		c-0.275-4.539,2.74-3.605,5.251-3.644c2.604-0.038,5.367-0.69,5.27,3.719c-0.229,10.319-0.172,20.648-0.033,30.972
		c0.063,4.63-3.192,3.257-5.563,3.383c-2.423,0.13-5.121,0.684-4.919-3.462C255.226,277.766,255.03,272.427,255.031,267.098z"/>
	<path fill-rule="evenodd" clip-rule="evenodd" fill="#2C2C2C" d="M583.903,269.888c-0.001-4.16-0.108-8.323,0.04-12.478
		c0.085-2.392-0.312-3.899-3.179-3.492c-1.702,0.241-2.861-0.229-2.865-2.353c-0.005-2.033,0.972-2.741,2.761-2.464
		c3.307,0.512,3.202-1.514,3.33-3.875c0.423-7.796,4.444-11.144,11.998-10.407c1.513,0.147,2.567,0.366,2.614,2.175
		c0.045,1.705-0.711,2.396-2.375,2.407c-0.986,0.007-1.991,0.168-2.954,0.4c-3.768,0.908-4.134,3.948-4.147,7.026
		c-0.018,3.957,3.108,1.688,4.791,2.221c1.632,0.516,4.308-1.123,4.411,2.32c0.115,3.871-2.874,2.632-4.617,2.472
		c-3.665-0.337-4.893,0.729-4.735,4.6c0.331,8.14,0.089,16.302,0.107,24.454c0.005,1.881,0.238,3.718-2.607,3.711
		c-2.863-0.008-2.584-1.882-2.576-3.74C583.917,278.539,583.905,274.213,583.903,269.888z"/>
	<path fill-rule="evenodd" clip-rule="evenodd" fill="#2C2C2C" d="M429.835,267.434c-0.003-2.495,0.055-4.991-0.018-7.483
		c-0.088-3.02,1.446-7.098-4.288-6.579c-1.172,0.105-1.381-1.184-1.354-2.254c0.028-1.149,0.522-2.142,1.7-1.965
		c4.664,0.701,3.903-2.441,4.009-5.23c0.064-1.711-1.153-4.28,2.255-4.448c3.698-0.184,2.95,2.555,2.721,4.463
		c-0.481,3.997,0.64,5.833,5.008,5.239c1.587-0.216,4.403-1.265,4.326,2.225c-0.066,3.001-2.538,2.344-4.07,2.1
		c-4.66-0.744-5.556,1.349-5.278,5.505c0.353,5.298,0.163,10.639,0.067,15.959c-0.076,4.203,1.631,6.711,6.019,6.837
		c1.804,0.052,3.298,0.043,3.131,2.572c-0.157,2.376-1.796,1.934-3.213,1.997c-7.895,0.351-10.938-2.537-11.009-10.455
		C429.815,273.088,429.837,270.261,429.835,267.434z"/>
	<path fill-rule="evenodd" clip-rule="evenodd" fill="#2D2D2D" d="M649.263,253.772c2.848-3.476,6.161-5.476,10.514-4.911
		c1.624,0.211,3.544,0.203,3.243,2.728c-0.237,1.992-0.669,3.076-3.399,2.878c-7.201-0.523-10.653,3.078-10.719,10.456
		c-0.053,5.995-0.038,11.99,0.001,17.985c0.012,1.941,0.092,3.65-2.677,3.688c-2.846,0.04-2.686-1.763-2.684-3.664
		c0.014-9.825-0.047-19.65,0.055-29.475c0.018-1.688-1.136-4.145,2.311-4.436C649.522,248.717,648.662,251.431,649.263,253.772z"/>
	<path fill-rule="evenodd" clip-rule="evenodd" fill="#2F2F2F" d="M845.404,268.001c0,4.994-0.041,9.989,0.021,14.982
		c0.024,2.027-0.095,3.615-2.81,3.556c-2.405-0.052-2.558-1.407-2.55-3.271c0.044-10.321,0.033-20.643,0.005-30.964
		c-0.005-1.813,0.084-3.191,2.541-3.288c2.819-0.11,2.809,1.555,2.8,3.503C845.388,257.68,845.403,262.841,845.404,268.001z"/>
	<path fill-rule="evenodd" clip-rule="evenodd" fill="#1E1E9C" d="M259.929,232.492c4.006,0.179,6.508,2.088,6.568,6.077
		c0.06,3.899-2.131,6.271-6.132,6.325c-3.906,0.052-6.323-1.977-6.441-6.003C253.806,234.842,256.187,232.898,259.929,232.492z"/>
	<path fill-rule="evenodd" clip-rule="evenodd" fill="#313131" d="M846.815,238.706c-0.408,2.496-1.869,3.807-4.382,3.636
		c-2.28-0.156-3.668-1.477-3.587-3.83c0.092-2.653,1.809-3.725,4.273-3.617C845.471,234.998,846.563,236.474,846.815,238.706z"/>
	<path fill-rule="evenodd" clip-rule="evenodd" fill="#FEFEFE" d="M871.318,164.254c-22.915-0.004-36.261-9.848-40.379-32.567
		c-4.608-25.423-19.572-40.11-43.274-47.842c-14.101-4.6-28.682-7.332-42.783-11.832c-4.424-1.411-8.817-3.021-13.035-4.953
		c-6.432-2.947-11.126-7.42-10.883-15.205c0.236-7.588,5.114-11.772,11.494-14.215c15.794-6.046,31.278-5.127,46.232,2.959
		c7.411,4.007,13.634,9.486,19.375,15.582c1.315,1.397,1.959,2.888,2.262,4.804c3.001,18.979,13.782,31.969,30.966,40.04
		c15.646,7.35,32.598,10.371,49.054,15.049c5.108,1.452,10.247,3.004,15.087,5.151c12.987,5.762,16.178,19.709,7.342,30.966
		c-6.102,7.772-14.59,10.687-23.975,11.695C876.322,164.152,873.813,164.139,871.318,164.254z"/>
	<path fill-rule="evenodd" clip-rule="evenodd" fill="#FD0101" d="M939.825,59.109c-5.353,6.043-10.751,12.047-16.029,18.155
		c-1.392,1.61-2.283,1.797-3.874,0.179c-5.672-5.771-11.492-11.395-17.257-17.074C915.052,59.949,927.438,59.529,939.825,59.109z"/>
	<path fill-rule="evenodd" clip-rule="evenodd" fill="#FDFDFD" d="M920.179,267.574c0,2.152,0.179,4.322-0.036,6.453
		c-0.484,4.813-3.42,7.722-7.881,8.092c-4.729,0.392-8.739-2-9.998-6.418c-1.478-5.187-1.542-10.521-0.088-15.725
		c1.256-4.494,5.363-7.18,9.79-6.834c4.562,0.355,7.608,3.45,8.184,8.476c0.226,1.97,0.201,3.968,0.291,5.953
		C920.354,267.572,920.266,267.573,920.179,267.574z"/>
	<path fill-rule="evenodd" clip-rule="evenodd" fill="#FEFEFE" d="M579.075,49.655c8.857,23.92,17.203,46.461,25.678,69.35
		c-17.009,0-33.461,0-50.664,0C562.313,96.179,570.432,73.645,579.075,49.655z"/>
	<path fill-rule="evenodd" clip-rule="evenodd" fill="#FEFEFE" d="M390.778,64.075c-0.001-7.662,0.013-15.324-0.01-22.985
		c-0.006-1.902-0.196-3.628,2.684-3.554c13.804,0.355,27.684-0.87,41.394,1.353c13.885,2.251,21.608,12.085,21.317,26.35
		c-0.269,13.17-8.892,22.83-22.287,24.626c-13.423,1.799-26.944,0.889-40.423,1.178c-2.899,0.062-2.69-1.587-2.685-3.481
		C390.792,79.732,390.778,71.903,390.778,64.075z"/>
	<path fill-rule="evenodd" clip-rule="evenodd" fill="#FEFEFE" d="M288.236,126.199c0.178,6.215-0.552,12.648-2.523,18.888
		c-4.084,12.926-15.547,22.232-27.999,22.853c-13.389,0.668-25.343-6.626-30.594-19.754c-5.845-14.611-5.857-29.645-0.074-44.3
		c5.157-13.065,16.527-20.198,30.007-19.779c12.846,0.398,23.582,8.637,28.24,21.648
		C287.625,112.268,288.359,119.01,288.236,126.199z"/>
	<path fill-rule="evenodd" clip-rule="evenodd" fill="#FCFCFD" d="M392.188,267.367c0.084,6.784-2.209,10.554-6.359,10.564
		c-4.355,0.011-6.944-4.09-6.826-10.82c0.012-0.661,0.018-1.325,0.093-1.98c0.608-5.266,3.245-8.446,6.998-8.027
		c4.858,0.543,5.751,4.278,6.087,8.282C392.234,266.042,392.188,266.706,392.188,267.367z"/>
	<path fill-rule="evenodd" clip-rule="evenodd" fill="#EFEEF5" d="M345.105,256.915c2.513-0.063,4.167,0.618,5.445,2.049
		c0.891,0.998,1.814,2.225,1.432,3.556c-0.502,1.747-2.216,0.936-3.421,1.034c-1.48,0.12-3.006,0.204-4.462-0.019
		c-1.64-0.252-4.368,1.18-4.702-1.114c-0.374-2.57,1.655-4.539,4.32-5.324C344.341,256.913,345.022,256.926,345.105,256.915z"/>
	<path fill-rule="evenodd" clip-rule="evenodd" fill="#FDFCFC" d="M113.945,267.627c0.109,2.017-0.122,3.991-0.88,5.869
		c-1.16,2.874-3.148,4.646-6.417,4.573c-3.024-0.066-5.052-1.697-6.028-4.405c-1.451-4.024-1.409-8.215-0.11-12.237
		c0.941-2.916,3.178-4.591,6.445-4.507c3.014,0.078,4.947,1.647,6.076,4.344C113.884,263.304,114.021,265.451,113.945,267.627z"/>
	<path fill-rule="evenodd" clip-rule="evenodd" fill="#FEFEFE" d="M690.699,267.874c0.054-3.154-0.049-6.307,1.251-9.318
		c1.376-3.189,3.641-5.163,7.131-5.39c3.406-0.221,6.382,1.001,7.974,4.082c3.584,6.938,3.43,14.119,0.22,21.104
		c-1.458,3.174-4.59,4.113-7.997,3.987c-3.332-0.122-5.605-1.794-7.068-4.706C690.655,274.542,690.701,271.205,690.699,267.874z"/>
	<path fill-rule="evenodd" clip-rule="evenodd" fill="#FCFCFC" d="M559.871,268.444c1.666,0.675,4.793-1.444,5.401,1.398
		c0.74,3.454,0.958,7.392-2.454,10.037c-3.694,2.864-7.912,3.245-12.214,1.846c-2.356-0.767-3.706-2.656-3.836-5.269
		c-0.147-2.962,1.136-5.106,3.697-6.476C553.346,268.443,556.521,268.52,559.871,268.444z"/>
	<path fill-rule="evenodd" clip-rule="evenodd" fill="#FBFBFB" d="M740.13,268.462c6.904-0.048,7.979,1.284,6.542,7.267
		c-0.878,3.655-3.531,5.547-6.981,6.275c-3.631,0.768-7.373,1.092-10.246-1.945c-2.837-3-1.644-7.884,2.3-10.058
		C734.629,268.411,737.811,268.525,740.13,268.462z"/>
	<path fill-rule="evenodd" clip-rule="evenodd" fill="#FDFDFD" d="M617.669,265.33c-1.332,0-2.665,0.002-3.997,0
		c-5.881-0.007-6.661-1.163-4.456-6.606c1.717-4.24,6.402-6.478,11.149-5.325c4.533,1.1,7.838,5.675,7.504,9.963
		c-0.158,2.032-1.37,1.949-2.705,1.962C622.666,265.347,620.167,265.33,617.669,265.33z"/>
	<path fill-rule="evenodd" clip-rule="evenodd" fill="#FDFDFD" d="M477.764,267.875c-0.236,2.289-0.303,4.639-0.752,6.912
		c-0.924,4.678-4.419,7.453-9.185,7.558c-5.086,0.112-8.837-2.604-9.803-7.414c-0.925-4.607-0.906-9.295-0.07-13.914
		c0.885-4.891,4.583-7.841,9.495-7.888c4.874-0.045,8.679,2.924,9.609,7.748C477.497,263.152,477.538,265.504,477.764,267.875z"/>
</g>
</svg>
