<?xml version="1.0" encoding="utf-8"?>
<!-- Generator: Adobe Illustrator 16.0.0, SVG Export Plug-In . SVG Version: 6.00 Build 0)  -->
<!DOCTYPE svg PUBLIC "-//W3C//DTD SVG 1.1//EN" "http://www.w3.org/Graphics/SVG/1.1/DTD/svg11.dtd">
<svg version="1.1" id="Layer_1" xmlns="http://www.w3.org/2000/svg" xmlns:xlink="http://www.w3.org/1999/xlink" x="0px" y="0px"
	 width="512px" height="512px" viewBox="0 0 512 512" enable-background="new 0 0 512 512" xml:space="preserve">
<g>
	<path fill="#74787C" d="M132.234,387.875c-2.618,0-4.617,0-6.618,0c-38.054,0-76.109,0.002-114.164-0.003
		c-9.125-0.002-10.713-1.976-11.18-10.903c-2.458-46.98,28.316-91.146,75.425-106.203c-16.403-12.91-24.984-29.351-23.17-50.199
		c1.289-14.802,7.869-27.14,19.245-36.752c21.954-18.551,54.809-16.838,74.416,3.945c11.403,12.086,16.695,26.56,14.962,43.127
		c-1.625,15.529-4.748,20.472-22.777,40.112c13.186,4.349,25.399,10.382,35.849,19.384c5.483,4.727,10.266,10.256,15.521,15.26
		c1.165,1.107,3.184,2.407,4.477,2.121c10.513-2.328,20.947-5.013,32.217-7.789c-1.671-1.58-2.789-2.682-3.952-3.73
		c-20.981-18.956-29.448-51.221-20.2-77.009c8.075-22.521,28.708-35.556,55.098-34.805c30.526,0.869,51.667,18.118,55.28,46.17
		c3.396,26.378-4.472,49.063-24.597,67.03c-0.611,0.546-1.207,1.11-2.459,2.267c8.437,2.09,16.425,3.473,23.973,6.104
		c7.514,2.623,12.152,1.114,17.464-5.181c12.252-14.51,28.345-23.812,47.149-29.924c-17.795-14.282-26.336-32.151-22.633-54.716
		c2.258-13.741,9.164-24.939,20.108-33.555c22.449-17.673,54.577-14.768,73.953,6.089c16.721,18.002,24.066,55.497-8.645,81.966
		c5.701,2.473,11.563,4.527,16.967,7.435c33.511,18.013,52.764,46.017,57.583,83.735c0.787,6.16,0.364,12.502,0.208,18.752
		c-0.109,4.373-2.811,6.713-7.072,7.193c-1.504,0.171-3.04,0.076-4.563,0.076c-37.885,0.002-75.771,0.002-113.655,0.002
		c-1.993,0-3.988,0-6.521,0c0,2.092,0.022,3.73-0.004,5.367c-0.354,21.644-0.548,43.29-1.118,64.927
		c-0.548,20.869-16.158,36.485-37.024,36.558c-57.167,0.203-114.334,0.204-171.5-0.001c-20.825-0.074-36.399-15.75-36.932-36.648
		c-0.553-21.638-0.757-43.285-1.108-64.925C132.211,391.648,132.234,390.148,132.234,387.875z M274.848,311.848
		c-0.135,1.107-0.298,1.601-0.23,2.062c4.859,34.812,9.705,69.624,14.656,104.421c0.602,4.223,0.146,7.809-2.521,11.407
		c-8.048,10.869-15.736,22.001-23.652,32.966c-4.678,6.477-9.396,6.443-14.1-0.083c-8.008-11.109-16.095-22.169-23.743-33.522
		c-1.708-2.538-2.765-6.34-2.378-9.334c3.268-25.304,6.952-50.554,10.484-75.824c1.466-10.486,2.864-20.983,4.445-32.59
		c-21.958,5.932-43.287,11.016-64.168,17.528c-20.799,6.49-25.901,13.795-26.16,35.517c-0.358,30.088-0.186,60.186,0.02,90.277
		c0.128,18.75,11.828,28.326,31.115,25.356c0-1.876,0-3.858,0-5.84c0-24.862-0.004-49.729,0.008-74.591
		c0.001-1.858-0.068-3.744,0.215-5.57c0.575-3.699,3.202-6.176,6.59-5.621c2.49,0.408,5.047,2.759,6.728,4.904
		c1.042,1.33,0.645,3.897,0.647,5.909c0.033,25.034,0.022,50.067,0.022,75.103c0,1.957,0,3.915,0,5.873c42.56,0,84.39,0,126.502,0
		c0-2.432,0-4.449,0-6.471c0-24.693-0.006-49.391,0.012-74.086c0-1.854-0.043-3.746,0.293-5.554c0.719-3.858,3.287-6.015,7.13-5.843
		c3.801,0.17,6.242,2.402,6.639,6.373c0.168,1.678,0.133,3.379,0.133,5.067c0.008,24.862,0.004,49.729,0.004,74.595
		c0,1.976,0,3.95,0,6.285c3.378,0,6.066,0.083,8.751-0.014c12.106-0.441,22.018-9.28,22.161-21.404
		c0.395-33.133,0.225-66.271,0.075-99.406c-0.067-14.965-7.551-24.81-21.773-29.482c-5.932-1.951-11.812-4.115-17.843-5.699
		C308.32,320.199,291.667,316.1,274.848,311.848z M176.385,312.727c-19.521-25.24-62.695-42.324-104.513-25.436
		c-35.151,14.195-62.337,55.211-56.688,86.104c38.921,0,77.892,0,117.362,0c1.219-13.793,0.061-28.143,8.57-40.09
		C149.689,321.271,163.222,317.242,176.385,312.727z M497.303,373.402c2.896-36.342-23.877-74.717-60.77-87.6
		c-42.087-14.697-82.538,3.332-100.786,26.92c13.19,4.467,26.688,8.555,35.275,20.564c8.534,11.939,7.286,26.311,8.652,40.113
		C419.063,373.402,458.033,373.402,497.303,373.402z M299.324,242.047c-0.063-28.082-18.106-44.913-45.53-43.366
		c-20.816,1.175-34.509,10.465-38.881,27.969c-5.536,22.171-0.219,42.069,16.194,58.106c15.403,15.051,36.461,14.182,51.456-1.328
		C293.934,271.663,298.886,257.279,299.324,242.047z M106.787,185.133c-22.114,0.033-40.346,18.265-40.387,40.384
		c-0.042,22.05,18.193,40.397,40.29,40.54c22.19,0.144,40.79-18.479,40.646-40.692C147.191,203.231,128.916,185.099,106.787,185.133
		z M405.088,185.133c-22.099,0.089-40.301,18.394-40.271,40.501c0.029,22.053,18.34,40.372,40.406,40.421
		c22.221,0.051,40.747-18.604,40.529-40.81C445.535,203.114,427.215,185.043,405.088,185.133z M256.091,448.106
		c6.479-9.13,12.571-17.57,18.435-26.166c0.69-1.009,0.313-2.896,0.119-4.335c-2.479-18.404-4.98-36.803-7.539-55.195
		c-2.412-17.361-4.896-34.709-7.39-52.352c-2.51,0-4.764,0-6.869,0c-0.312,0.611-0.554,0.891-0.597,1.197
		c-5.002,35.776-9.999,71.555-14.934,107.341c-0.169,1.234-0.119,2.849,0.535,3.795
		C243.687,430.809,249.679,439.114,256.091,448.106z"/>
	<path fill="#74787C" d="M257.884,17.455c3.703,0.079,7.419,2.776,9.714,7.666c4.519,9.627,9.186,19.188,13.538,28.887
		c1.276,2.843,2.905,3.963,6.013,4.288c10.582,1.108,21.126,2.585,31.682,3.937c5.365,0.688,9.086,3.522,10.754,8.703
		c1.62,5.018,0.178,9.374-3.554,12.917c-7.843,7.451-15.896,14.688-23.565,22.312c-1.443,1.435-2.384,4.397-2.061,6.417
		c1.669,10.5,3.742,20.939,5.84,31.366c1.079,5.359-0.313,9.788-4.59,13.052c-4.307,3.288-9.002,3.433-13.782,0.797
		c-9.462-5.22-19.003-10.302-28.379-15.673c-2.548-1.459-4.431-1.337-6.894,0.065c-8.948,5.098-18.06,9.911-27.03,14.971
		c-4.972,2.803-9.908,3.593-14.739,0.092c-4.944-3.583-5.994-8.476-4.729-14.383c2.122-9.902,3.606-19.943,5.786-29.831
		c0.737-3.344-0.097-5.264-2.486-7.419c-7.403-6.682-14.539-13.66-21.899-20.389c-4.323-3.952-6.866-8.418-4.913-14.359
		c1.927-5.858,6.366-8.208,12.308-8.841c10.244-1.092,20.472-2.403,30.646-4.001c1.89-0.297,4.253-1.999,5.111-3.699
		c4.779-9.497,9.114-19.214,13.699-28.809C247.072,19.828,250.7,17.437,257.884,17.455z M313.735,75.941
		c-12.362-1.598-23.36-3.166-34.397-4.372c-4.195-0.459-6.85-2.267-8.486-6.082c-1.799-4.187-3.822-8.277-5.773-12.398
		c-2.848-6.012-5.719-12.013-9.031-18.971c-5.074,10.782-9.792,20.451-14.169,30.272c-1.991,4.466-4.793,6.849-9.836,7.354
		c-10.83,1.087-21.609,2.682-32.409,4.071c-0.342,0.543-0.683,1.085-1.025,1.628c1.415,0.888,3.004,1.584,4.213,2.694
		c6.727,6.177,13.262,12.563,20.069,18.649c3.617,3.235,5.093,6.569,3.973,11.594c-2.4,10.77-4.192,21.675-6.377,33.294
		c10.259-5.633,19.855-10.606,29.132-16.118c4.697-2.792,8.583-2.559,13.167,0.119c9.279,5.422,18.804,10.421,28.896,15.96
		c-2.188-11.574-3.98-22.389-6.357-33.074c-1.1-4.956,0.146-8.363,3.802-11.654C297.146,91.687,304.93,84.193,313.735,75.941z"/>
	<path fill="#74787C" d="M104.992,59.096c6.429-0.101,9.699,2.237,11.712,6.389c2.727,5.619,5.475,11.236,7.943,16.969
		c1.182,2.746,2.593,4.16,5.83,4.42c6.556,0.527,13.063,1.663,19.587,2.579c4.259,0.596,7.139,3.03,8.495,7.028
		c1.43,4.214,0.47,8.064-2.733,11.167c-4.733,4.589-9.743,8.906-14.271,13.685c-1.354,1.429-2.281,4.111-2.036,6.048
		c0.781,6.185,2.115,12.309,3.408,18.419c1.016,4.794-0.172,8.769-4.091,11.675c-3.777,2.802-7.822,2.737-11.904,0.464
		c-5.459-3.04-11.026-5.896-16.388-9.096c-2.67-1.593-4.781-1.496-7.424,0.092c-5.207,3.129-10.668,5.831-15.958,8.826
		c-4.234,2.397-8.396,2.63-12.343-0.347c-3.896-2.939-5.042-6.92-3.987-11.71c1.053-4.779,1.387-9.759,2.84-14.398
		c1.698-5.425,0.581-9.204-3.965-12.661c-4.015-3.054-7.447-6.872-11.157-10.332c-3.375-3.146-4.851-6.902-3.477-11.431
		c1.368-4.5,4.542-6.943,9.19-7.545c6.533-0.843,13.096-1.528,19.567-2.711c1.754-0.321,3.871-1.847,4.709-3.413
		c3.022-5.649,5.571-11.551,8.295-17.359C98.791,61.684,101.918,59.216,104.992,59.096z M73.252,102.567
		c4.715,4.449,8.216,8.111,12.096,11.319c4.039,3.335,5.044,7.156,3.801,12.142c-1.229,4.928-1.883,10-2.976,16.037
		c5.821-3.193,10.614-5.638,15.215-8.403c3.749-2.253,7.209-2.224,10.945-0.048c4.716,2.745,9.564,5.265,15.334,8.417
		c-1.24-6.46-2.171-11.749-3.291-16.996c-0.887-4.16-0.089-7.518,3.287-10.431c4.145-3.576,7.969-7.521,12.759-12.096
		c-6.338-0.804-11.46-1.649-16.617-2.055c-4.943-0.388-8.016-2.668-9.871-7.292c-1.914-4.773-4.364-9.332-7.058-14.987
		c-2.92,6.093-5.475,11.142-7.766,16.306c-1.525,3.44-3.891,5.266-7.656,5.673C85.806,100.761,80.186,101.631,73.252,102.567z"/>
	<path fill="#74787C" d="M403.015,59.107c6.811-0.116,10.085,2.209,12.101,6.365c2.728,5.62,5.47,11.238,7.944,16.969
		c1.18,2.73,2.571,4.173,5.819,4.432c6.556,0.524,13.063,1.67,19.588,2.578c4.263,0.594,7.142,3.023,8.506,7.017
		c1.436,4.211,0.48,8.066-2.72,11.17c-4.73,4.591-9.744,8.908-14.271,13.686c-1.354,1.429-2.291,4.108-2.048,6.042
		c0.779,6.186,2.11,12.31,3.406,18.421c1.018,4.793-0.161,8.769-4.076,11.68c-3.771,2.807-7.818,2.751-11.901,0.479
		c-5.462-3.038-11.025-5.897-16.392-9.095c-2.662-1.587-4.774-1.518-7.424,0.076c-5.203,3.133-10.666,5.833-15.955,8.828
		c-4.23,2.396-8.394,2.644-12.345-0.331c-3.901-2.937-5.055-6.914-4.004-11.705c1.052-4.78,1.391-9.758,2.842-14.399
		c1.691-5.418,0.599-9.207-3.954-12.667c-4.014-3.052-7.451-6.866-11.158-10.328c-3.366-3.145-4.86-6.897-3.485-11.429
		c1.365-4.502,4.524-6.952,9.182-7.552c6.532-0.844,13.094-1.532,19.564-2.717c1.757-0.32,3.881-1.836,4.718-3.402
		c3.021-5.647,5.563-11.555,8.299-17.357C397.207,61.719,400.282,59.167,403.015,59.107z M438.901,102.561
		c-6.398-0.836-11.654-1.714-16.948-2.158c-4.759-0.398-7.694-2.626-9.5-7.035c-1.996-4.871-4.447-9.555-7.164-15.304
		c-2.574,5.441-4.945,9.551-6.501,13.947c-2.106,5.953-6.163,8.356-12.189,8.703c-4.616,0.267-9.197,1.099-14.938,1.825
		c4.705,4.446,8.326,8.206,12.305,11.536c3.873,3.239,4.8,6.954,3.65,11.726c-1.208,5.018-1.952,10.148-3.097,16.279
		c5.851-3.206,10.763-5.753,15.525-8.557c3.59-2.112,6.942-2.071,10.504-0.021c4.793,2.759,9.675,5.364,15.524,8.59
		c-1.207-6.332-2.097-11.609-3.241-16.83c-0.959-4.364-0.1-7.839,3.449-10.851C430.371,110.947,434.123,107.085,438.901,102.561z"/>
</g>
</svg>
