<?xml version="1.0" encoding="utf-8"?>
<!-- Generator: Adobe Illustrator 16.0.0, SVG Export Plug-In . SVG Version: 6.00 Build 0)  -->
<!DOCTYPE svg PUBLIC "-//W3C//DTD SVG 1.1//EN" "http://www.w3.org/Graphics/SVG/1.1/DTD/svg11.dtd">
<svg version="1.1" id="Layer_1" xmlns="http://www.w3.org/2000/svg" xmlns:xlink="http://www.w3.org/1999/xlink" x="0px" y="0px"
	 width="512px" height="512px" viewBox="0 0 512 512" enable-background="new 0 0 512 512" xml:space="preserve">
<g>
	<path fill="#74787C" d="M367.976,0.136c4.734,1.946,9.867,3.266,14.123,5.964c9.859,6.249,15.372,15.531,16.008,27.298
		c0.186,3.435,1.393,5.05,4.513,6.627c4.853,2.452,9.51,5.549,13.665,9.064c6.873,5.813,14.541,9.207,23.479,9.828
		c0.664,0.046,1.326,0.123,1.989,0.197c22.695,2.563,30.561,9.68,33.198,32.266c1.397,11.948,5.834,21.859,13.562,30.865
		c6.214,7.242,10.826,15.76,8.27,25.613c-1.54,5.932-4.301,12.12-8.222,16.748c-8.437,9.963-12.651,20.976-13.867,33.896
		c-1.671,17.757-9.938,25.731-27.734,28.752c-1.805,0.305-3.613,0.656-5.433,0.775c-9.777,0.639-18.52,3.721-25.761,10.562
		c-1.323,1.25-2.87,2.271-4.341,3.361c-14.662,10.854-26.436,10.849-40.998-0.013c-1.852-1.38-3.688-2.779-6.082-4.586
		c0,32.685,0,64.788,0,97.708c6.063-4.726,11.761-9.166,17.455-13.608c6.852-5.341,11.377-5.341,18.328,0.048
		c5.638,4.371,11.253,8.77,17.833,13.9c0-2.637,0-4.34,0-6.045c0-22.313-0.005-44.623,0.008-66.936
		c0.001-1.663-0.175-3.398,0.233-4.97c0.993-3.824,3.573-5.985,7.624-5.813c3.812,0.163,6.126,2.374,6.95,6.026
		c0.285,1.274,0.169,2.651,0.169,3.979c0.008,26.143-0.054,52.284,0.052,78.426c0.021,5.594-1.245,10.281-6.646,12.851
		c-5.404,2.571-9.922,0.608-14.194-2.937c-4.165-3.461-8.535-6.674-13.773-10.736c0,3.085,0,5.021,0,6.956
		c0,40.794-0.53,81.599,0.216,122.379c0.395,21.514-8.084,37.697-30.62,43.245c-107.603,0-215.204,0-322.805,0
		c-1.894-0.594-3.811-1.122-5.677-1.789c-14.136-5.064-22.458-14.952-24.507-29.895c-0.405-2.955-0.424-5.979-0.424-8.97
		c-0.021-122.75-0.02-245.501-0.005-368.25c0-2.158-0.058-4.361,0.336-6.463c0.746-3.993,3.522-6.155,7.431-6.016
		c3.875,0.139,6.555,2.369,7.025,6.466c0.245,2.141,0.18,4.323,0.18,6.485c0.007,122.585,0.003,245.167,0.025,367.751
		c0.001,2.82,0.054,5.679,0.489,8.457c1.471,9.384,9.278,16.444,18.779,17.156c1.657,0.125,3.33,0.071,4.995,0.071
		c101.764,0.003,203.53,0.004,305.293,0.003c16.34-0.002,24.257-7.844,24.265-24.117c0.021-42.47,0.009-84.939-0.001-127.412
		c-0.001-1.602-0.136-3.201-0.248-5.777c-5.218,4.052-9.807,7.512-14.28,11.115c-4.095,3.301-8.495,4.616-13.422,2.243
		c-4.938-2.378-6.541-6.601-6.53-11.901c0.069-35.144,0.036-70.285,0.035-105.428c0-1.968,0-3.934,0-6.185
		c-5.165-0.78-9.906-1.443-14.632-2.219c-16.687-2.738-24.518-10.608-27.13-27.256c-0.465-2.959-0.897-5.929-1.162-8.91
		c-0.662-7.505-3.229-14.108-8.068-20.02c-3.774-4.614-7.276-9.554-10.192-14.746c-4.647-8.271-4.517-16.927-0.035-25.307
		c1.791-3.356,3.738-6.788,6.304-9.544c8.342-8.968,11.78-19.629,13.018-31.612c1.981-19.193,9.692-26.849,28.757-29.984
		c3.773-0.622,7.69-0.702,11.329-1.761c4.554-1.326,9.191-2.89,13.255-5.27c7.283-4.266,14.227-9.132,21.149-13.98
		c1.037-0.727,1.712-2.728,1.674-4.114c-0.276-10.266-8.75-18.773-19.183-19.464c-1.657-0.11-3.331-0.055-4.994-0.055
		c-101.599-0.002-203.195-0.003-304.793-0.002c-16.883,0-24.666,7.813-24.685,24.775c-0.009,7.829,0.064,15.658-0.031,23.483
		c-0.07,5.745-2.662,8.745-7.299,8.804c-4.627,0.061-7.539-2.999-7.612-8.567c-0.125-9.491-0.342-19.001,0.091-28.477
		c0.783-17.119,10.91-29.431,27.32-34.01c0.756-0.211,1.445-0.662,2.165-1C152.106,0.136,260.04,0.136,367.976,0.136z
		 M391.03,235.73c2.92-1.274,5.64-2.114,7.981-3.565c3.243-2.007,6.326-4.326,9.262-6.771c8.03-6.687,17.058-10.858,27.575-11.645
		c2.813-0.211,5.62-0.667,8.398-1.18c11.721-2.164,14.606-4.629,15.614-16.429c1.289-15.118,6.328-28.186,16.295-39.841
		c8.829-10.327,8.795-15.112-0.005-25.46c-9.678-11.379-14.783-24.063-16.188-38.842c-1.282-13.471-4.322-15.927-17.704-17.756
		c-0.824-0.113-1.657-0.16-2.486-0.222c-12.304-0.916-23.081-5.171-32.75-13.121c-14.643-12.041-17.406-11.83-32.29-0.041
		c-7.135,5.651-14.574,10.534-23.809,11.887c-3.621,0.531-7.254,0.987-10.886,1.441c-13.683,1.708-16.509,4.073-18.221,17.841
		c-1.607,12.944-4.743,24.857-13.406,35.279c-12.386,14.901-12.24,17.567-0.025,32.616c7.52,9.261,11.931,19.446,12.755,31.313
		c0.229,3.3,1.091,6.557,1.642,9.836c1.048,6.212,4.873,10.281,10.902,10.658c18.829,1.172,35.125,7.842,49.192,20.402
		C384.952,233.983,388.196,234.525,391.03,235.73z"/>
	<path fill="#74787C" d="M206.427,222.564c-11.483,0-22.976-0.271-34.45,0.059c-21.94,0.631-32.537-18.122-27.98-33.709
		c1.16-3.967,1.46-8.178,2.348-12.234c3.452-15.758,12.743-26.542,28.116-31.479c5.036-1.618,7.176-3.712,6.817-9.262
		c-0.318-4.903-1.272-8.901-3.993-13.26c-3.218-5.156-5.416-11.477-6.154-17.525c-1.02-8.361-0.618-16.958-0.194-25.422
		c0.931-18.673,16.401-33.261,35.041-33.476c18.679-0.217,34.766,14.483,35.875,33.259c0.491,8.292,0.37,16.649,0.007,24.954
		c-0.346,7.842-3.448,14.771-8.33,20.982c-3.92,4.99-1.598,10.837-1.452,16.313c0.021,0.736,2.355,1.424,3.631,2.11
		c6.105,3.272,13.132,5.511,18.148,9.999c14.282,12.776,16.599,30.343,15.152,48.034c-0.942,11.551-10.993,19.72-22.654,20.239
		c-13.285,0.591-26.616,0.137-39.927,0.137C206.428,222.376,206.427,222.471,206.427,222.564z M206.18,207.435
		c12.306,0,24.614,0.129,36.917-0.044c8.535-0.12,12.965-5.825,11.451-14.23c-0.735-4.087-1.571-8.156-2.229-12.254
		c-1.857-11.554-8.589-18.812-19.65-22.046c-1.58-0.463-3.937-0.125-5.292,0.791c-13.886,9.384-28.19,9.473-41.856,0.16
		c-1.183-0.806-3.079-1.477-4.332-1.12c-10.781,3.073-17.899,9.808-20.127,21.104c-0.802,4.075-1.529,8.163-2.328,12.238
		c-1.946,9.945,2.376,15.335,12.524,15.396C182.898,207.499,194.54,207.444,206.18,207.435z M226.055,76.89
		c-2.929-10.14-11.838-16.511-21.352-15.581c-10.37,1.014-18.329,8.924-18.821,19.298c-0.361,7.637-0.336,15.314-0.046,22.957
		c0.39,10.325,8.13,18.573,17.877,19.588c10.379,1.08,19.744-4.977,22.254-15.134c1.159-4.694,0.965-9.723,1.429-15.109
		c-2.848,0.737-4.75,1.272-6.673,1.72c-8.127,1.895-16.184,2.326-23.767-1.935c-3.82-2.148-5.07-6.204-3.417-9.837
		c1.638-3.598,5.731-5.42,9.665-3.623C211.448,83.003,218.664,79.865,226.055,76.89z M195.516,137.777
		c0.686,3.832,0.277,8.651,2.417,11.653c2.469,3.465,14.197,3.497,16.691,0.055c2.164-2.985,1.82-7.788,2.569-11.708
		C209.719,137.777,203.323,137.777,195.516,137.777z"/>
	<path fill="#74787C" d="M204.566,391.148c-37.297,0-74.595,0.002-111.891-0.006c-1.83,0-3.689,0.096-5.483-0.183
		c-3.531-0.545-5.664-2.733-6.071-6.284c-0.43-3.748,1.117-6.628,4.76-7.794c2.004-0.641,4.255-0.694,6.395-0.696
		c75.26-0.031,150.52-0.031,225.78-0.004c1.979,0,4.038,0.041,5.921,0.566c3.686,1.027,5.416,3.744,5.157,7.531
		c-0.262,3.813-2.426,6.131-6.192,6.695c-1.798,0.271-3.654,0.168-5.484,0.168C279.827,391.15,242.197,391.148,204.566,391.148z"/>
	<path fill="#74787C" d="M205.156,416.759c37.466,0,74.93-0.001,112.396,0.002c1.664,0,3.344-0.095,4.99,0.09
		c3.772,0.428,6.096,2.58,6.548,6.368c0.48,4.014-1.339,6.856-5.199,7.989c-1.863,0.55-3.939,0.522-5.921,0.523
		c-75.264,0.021-150.528,0.021-225.792,0.004c-1.821,0-3.721,0.079-5.45-0.382c-3.84-1.021-5.941-3.653-5.635-7.719
		c0.304-4.033,2.665-6.336,6.674-6.787c1.647-0.184,3.326-0.088,4.992-0.088C130.225,416.758,167.69,416.759,205.156,416.759z"/>
	<path fill="#74787C" d="M204.654,471.977c-37.465,0-74.931,0-112.396-0.003c-1.664,0-3.773,0.569-4.9-0.224
		c-2.36-1.662-5.129-3.723-6.032-6.231c-1.237-3.436,0.843-6.567,4.48-7.766c1.994-0.657,4.243-0.738,6.376-0.738
		c75.265-0.034,150.528-0.031,225.791-0.01c1.98,0.002,4.055-0.017,5.921,0.529c3.87,1.128,5.679,3.976,5.196,7.988
		c-0.454,3.785-2.772,5.94-6.549,6.362c-1.646,0.186-3.325,0.088-4.99,0.088C279.918,471.977,242.286,471.977,204.654,471.977z"/>
	<path fill="#74787C" d="M205.587,335.898c37.467,0,74.931-0.002,112.398,0.002c1.5,0,3.017-0.123,4.493,0.072
		c3.96,0.524,6.352,2.777,6.656,6.834c0.31,4.094-1.854,6.678-5.634,7.741c-1.716,0.481-3.631,0.327-5.456,0.327
		c-75.265,0.016-150.531,0.016-225.797,0c-1.824,0-3.734,0.146-5.457-0.322c-3.79-1.027-5.982-3.596-5.704-7.686
		c0.274-4.051,2.655-6.333,6.611-6.891c1.471-0.205,2.993-0.078,4.491-0.078C129.989,335.896,167.788,335.898,205.587,335.898z"/>
	<path fill="#74787C" d="M205.087,269.973c-37.634,0-75.267,0.002-112.898-0.006c-1.664,0-3.382,0.186-4.98-0.154
		c-3.619-0.771-5.912-2.994-6.129-6.852c-0.232-4.095,1.922-6.663,5.709-7.69c1.721-0.466,3.636-0.279,5.463-0.279
		c75.266-0.012,150.53-0.01,225.797-0.007c1.497,0.002,3.029-0.138,4.487,0.114c4.114,0.71,6.637,3.098,6.616,7.43
		c-0.022,4.32-2.534,6.709-6.679,7.355c-1.465,0.23-2.988,0.088-4.487,0.088C280.352,269.975,242.719,269.973,205.087,269.973z"/>
	<path fill="#74787C" d="M205.404,310.384c-37.628,0-75.256,0.005-112.884-0.002c-8.17-0.001-11.604-2.313-11.467-7.685
		c0.132-5.176,3.419-7.301,11.39-7.303c75.089-0.004,150.179-0.002,225.269-0.002c0.5,0,1-0.004,1.499,0.002
		c6.807,0.094,10.085,2.638,9.96,7.726c-0.118,4.891-3.22,7.246-9.882,7.25C281.326,310.396,243.365,310.383,205.404,310.384z"/>
	<path fill="#74787C" d="M68.172,424.243c-0.044,4.176-3.662,7.642-7.767,7.441c-3.938-0.191-7.202-3.639-7.178-7.577
		c0.026-4.187,3.541-7.479,7.81-7.321C65.096,416.936,68.216,420.197,68.172,424.243z"/>
	<path fill="#74787C" d="M60.656,471.974c-4.026-0.03-7.331-3.248-7.425-7.228c-0.097-4.114,3.463-7.747,7.555-7.709
		c4.132,0.041,7.538,3.657,7.376,7.837C68.005,468.905,64.727,472.005,60.656,471.974z"/>
	<path fill="#74787C" d="M60.787,335.9c4.031,0.026,7.292,3.232,7.381,7.254c0.093,4.186-3.378,7.738-7.517,7.695
		c-4.134-0.043-7.595-3.697-7.417-7.832C53.404,339.036,56.765,335.868,60.787,335.9z"/>
	<path fill="#74787C" d="M60.543,269.958c-3.986-0.099-7.28-3.424-7.321-7.39c-0.042-4.155,3.512-7.655,7.672-7.555
		c4.184,0.1,7.5,3.708,7.267,7.907C67.938,266.915,64.54,270.059,60.543,269.958z"/>
	<path fill="#74787C" d="M60.53,376.23c3.938-0.115,7.392,3.078,7.629,7.057c0.253,4.246-2.97,7.724-7.244,7.82
		c-4.071,0.093-7.432-2.944-7.679-6.937C52.983,380.072,56.401,376.352,60.53,376.23z"/>
	<path fill="#74787C" d="M68.167,302.693c0.115,4.045-2.931,7.354-6.983,7.59c-4.224,0.244-7.827-3.001-7.952-7.164
		c-0.124-4.146,3.344-7.671,7.528-7.653C64.789,295.482,68.054,298.669,68.167,302.693z"/>
	<path fill="#74787C" d="M427.972,170.54c0.177,3.491,0.465,6.98,0.503,10.471c0.091,8.218-5.829,12.592-13.592,9.918
		c-6.909-2.379-13.666-5.21-20.604-7.489c-2.002-0.658-4.582-0.653-6.584,0.002c-6.941,2.269-13.709,5.065-20.612,7.46
		c-7.975,2.764-13.946-1.697-13.771-10.221c0.171-8.314,2.548-17.287,0.15-24.75c-2.392-7.446-9.54-13.346-14.537-19.974
		c-5.51-7.308-3.164-14.168,5.734-16.743c6.541-1.894,13.192-3.437,19.643-5.589c2.297-0.766,4.664-2.484,6.108-4.431
		c4.156-5.604,7.791-11.589,11.754-17.342c5.057-7.342,12.353-7.411,17.397-0.144c4.078,5.875,7.84,11.975,12.039,17.756
		c1.236,1.701,3.316,3.2,5.317,3.858c6.625,2.173,13.405,3.868,20.099,5.846c9.239,2.73,11.488,9.454,5.697,17.052
		c-3.326,4.366-6.558,8.841-10.247,12.889c-3.708,4.069-5.62,8.373-4.684,13.952c0.408,2.427,0.066,4.98,0.066,7.476
		C427.895,170.539,427.934,170.54,427.972,170.54z M426.985,131.97c-6.373-1.82-11.955-2.941-17.123-5.06
		c-3.313-1.357-6.568-3.727-8.875-6.464c-3.678-4.364-6.54-9.412-10.688-15.568c-6.264,17.157-18.229,25.314-35.941,26.383
		c4.423,5.658,8.289,9.816,11.176,14.569c1.938,3.194,3.13,7.164,3.517,10.903c0.577,5.573,0.149,11.249,0.149,18.502
		c14.44-10.112,28.913-9.662,43.496-0.255c0-6.419,0.358-11.548-0.099-16.603c-0.5-5.533,0.915-10.018,4.646-14.127
		C420.569,140.587,423.428,136.5,426.985,131.97z"/>
</g>
</svg>
