<?xml version="1.0" encoding="utf-8"?>
<!-- Generator: Adobe Illustrator 16.0.0, SVG Export Plug-In . SVG Version: 6.00 Build 0)  -->
<!DOCTYPE svg PUBLIC "-//W3C//DTD SVG 1.1//EN" "http://www.w3.org/Graphics/SVG/1.1/DTD/svg11.dtd">
<svg version="1.1" id="Layer_1" xmlns="http://www.w3.org/2000/svg" xmlns:xlink="http://www.w3.org/1999/xlink" x="0px" y="0px"
	 width="512px" height="512px" viewBox="0 0 512 512" enable-background="new 0 0 512 512" xml:space="preserve">
<g>
	<path fill="#74787C" d="M259.967,1c3.758,2.846,4.631,6.681,4.555,11.246c-0.213,12.97-0.086,25.947-0.076,38.921
		c0.002,3.375-0.943,6.204-4.166,7.884c-2.635,1.375-5.149,1.069-7.535-0.518c-2.442-1.624-3.279-4.093-3.282-6.895
		c-0.014-14.138,0.073-28.278-0.063-42.414c-0.036-3.787,2.323-5.89,4.569-8.225C255.968,1,257.968,1,259.967,1z"/>
	<path fill="#74787C" d="M256.958,465.864c13.664,0,27.328,0.046,40.992-0.015c11.886-0.052,18.956-7.131,18.998-18.952
		c0.039-10.997-0.1-21.997,0.078-32.992c0.048-3.013-0.652-4.035-3.832-3.913c-6.821,0.263-13.662,0.135-20.493,0.058
		c-5.044-0.057-8.334-2.982-8.402-7.261c-0.066-4.271,3.23-7.518,8.165-7.616c7.162-0.143,14.33-0.065,21.496-0.024
		c2.101,0.013,3.572,0.047,4.126-2.854c2.854-14.927,10.979-26.482,23.211-35.376c28.956-21.055,48.086-48.87,56.854-83.633
		c20.867-82.748-35.106-166.201-119.627-178.506c-34.972-5.091-67.459,1.765-97.604,20.081c-0.853,0.519-1.683,1.082-2.57,1.536
		c-4.172,2.133-8.281,1.153-10.431-2.457c-2.194-3.68-1.26-7.68,2.808-10.338c14.449-9.44,30.072-16.361,46.811-20.491
		c86.399-21.321,171.479,28.935,194.733,114.901c16.437,60.77-6.527,128.35-56.698,166.934c-3.955,3.04-8.057,5.963-11.629,9.416
		c-7.902,7.635-11.873,17.159-11.957,28.146c-0.114,14.83,0.002,29.661-0.042,44.491c-0.047,15.915-8.063,27.16-23.184,32.359
		c-2.09,0.719-3.085,1.872-4.08,3.772c-10.08,19.234-26.062,29.674-47.773,29.649c-21.711-0.024-37.702-10.482-47.68-29.765
		c-1.149-2.221-2.566-3.127-4.656-3.834c-14.077-4.764-22.516-16.435-22.58-31.288c-0.058-13.497-0.381-27.008,0.079-40.489
		c0.586-17.149-6.196-30.015-20.118-39.9c-20.019-14.219-35.366-32.669-46.959-54.276c-33.121-61.732-20.99-139.649,29.355-188.505
		c4.224-4.099,8.478-4.464,11.789-1.011c3.142,3.277,2.697,7.689-1.447,11.823c-19.417,19.367-32.595,42.249-39.21,68.906
		c-13.748,55.411,7.878,116.094,53.938,149.9c13.411,9.845,23.532,21.53,26.488,38.304c0.563,3.194,2.575,2.461,4.398,2.465
		c18.997,0.035,37.993,0.021,56.99,0.021c1.166,0,2.334-0.033,3.498,0.012c5.375,0.203,8.516,3.146,8.361,7.808
		c-0.147,4.481-3.113,7.088-8.438,7.101c-19.329,0.047-38.662,0.216-57.986-0.113c-4.908-0.084-6.06,1.214-5.879,5.975
		c0.398,10.483,0.087,20.992,0.134,31.489c0.05,11.172,7.2,18.363,18.479,18.439C229.295,465.935,243.126,465.864,256.958,465.864z"
		/>
	<path fill="#74787C" d="M366.787,249.521c-0.002,4.832,0.081,9.667-0.025,14.495c-0.101,4.569-2.25,7.535-7.009,8.244
		c-5.594,0.833-11.158,1.928-16.778,2.471c-2.496,0.24-3.521,1.242-4.027,3.434c-0.262,1.125-0.521,2.379-1.194,3.258
		c-5.067,6.613-2.156,11.605,2.369,17.25c10.167,12.678,9.906,12.887-1.472,24.239c-4.718,4.708-9.385,9.466-14.17,14.104
		c-4.022,3.899-6.963,4.098-11.504,0.82c-3.915-2.822-7.834-5.661-11.537-8.748c-2.563-2.136-4.949-3.092-7.898-0.938
		c-0.525,0.384-1.169,0.734-1.798,0.828c-8.634,1.283-10.207,7.311-10.866,14.789c-1.334,15.133-1.779,15.264-16.891,15.264
		c-6.83,0-13.663,0.025-20.492-0.008c-6.473-0.029-8.701-2.002-9.575-8.26c-0.53-3.791-1.682-7.584-1.577-11.351
		c0.162-5.776-3.292-7.293-7.688-9.67c-6.523-3.527-11.195-2.484-16.125,2.301c-2.488,2.414-5.499,4.306-8.35,6.325
		c-3.448,2.443-6.944,2.341-9.974-0.621c-7.266-7.104-14.458-14.285-21.572-21.541c-3.16-3.223-3.033-6.85-0.415-10.391
		c3.167-4.284,6.254-8.642,9.677-12.713c1.921-2.285,1.114-4.039,0.648-6.594c-2.046-11.193-9.817-13.416-19.354-13.558
		c-1.813-0.027-3.622-0.488-5.427-0.78c-4.284-0.693-6.487-3.457-6.557-7.563c-0.168-9.994-0.154-19.994-0.016-29.988
		c0.061-4.342,2.301-7.175,6.832-7.842c5.759-0.848,11.5-1.839,17.278-2.532c1.941-0.233,3.059-0.915,3.478-2.776
		c0.073-0.324,0.086-0.702,0.266-0.957c6.106-8.655,3.801-16.023-3.325-22.784c-1.429-1.356-2.481-3.125-3.632-4.756
		c-2.564-3.63-2.451-7.168,0.712-10.366c7.03-7.105,14.083-14.19,21.21-21.199c3.174-3.121,6.719-3.328,10.352-0.654
		c1.742,1.282,3.759,2.319,5.174,3.895c6.662,7.422,13.941,8.445,22.5,3.203c2.163-1.324,3.642-2.249,3.902-4.947
		c0.495-5.13,1.314-10.23,2.048-15.335c0.763-5.309,3.279-7.572,8.663-7.607c9.497-0.061,18.994-0.057,28.491-0.002
		c5.625,0.032,8.044,2.282,8.835,7.979c0.711,5.109,1.484,10.211,2.073,15.334c0.254,2.212,0.923,3.818,3.334,4.224
		c0.649,0.109,1.388,0.228,1.888,0.603c7.924,5.951,13.991,2.609,20.694-2.951c10.827-8.981,11.152-8.588,21.184,1.438
		c5.066,5.065,10.172,10.092,15.194,15.2c4.118,4.19,4.359,7.172,0.953,11.878c-3.121,4.316-6.395,8.521-9.539,12.82
		c-0.814,1.113-2.206,1.948-1.301,3.886c1.824,3.903,3.448,7.907,4.97,11.941c0.618,1.639,1.78,1.623,3.109,1.814
		c5.597,0.809,11.197,1.603,16.767,2.582c5.413,0.953,7.363,3.298,7.473,8.816C366.862,240.19,366.788,244.857,366.787,249.521z"/>
	<path fill="#74787C" d="M54.695,240.093c-6.994,0-13.988,0.05-20.981-0.017c-5.374-0.051-8.736-3.002-8.705-7.455
		c0.031-4.439,3.406-7.465,8.785-7.495c13.82-0.079,27.642-0.082,41.462,0.003c5.331,0.032,8.731,3.147,8.712,7.574
		c-0.02,4.445-3.376,7.326-8.792,7.375C68.349,240.14,61.521,240.093,54.695,240.093z"/>
	<path fill="#74787C" d="M459.247,240.092c-6.993-0.001-13.987,0.066-20.981-0.023c-5.034-0.064-8.271-3.023-8.307-7.332
		c-0.037-4.319,3.166-7.547,8.157-7.591c14.151-0.124,28.308-0.114,42.46-0.006c5.015,0.039,8.273,3.17,8.329,7.448
		c0.057,4.459-3.308,7.436-8.677,7.488C473.235,240.144,466.241,240.093,459.247,240.092z"/>
	<path fill="#74787C" d="M423.045,74.288c0.082,2.549-1.268,4.372-2.969,6.066c-9.783,9.75-19.512,19.556-29.334,29.267
		c-3.953,3.908-8.174,4.121-11.439,0.856c-3.254-3.254-3.03-7.477,0.863-11.405c9.842-9.926,19.784-19.753,29.646-29.661
		c2.653-2.667,5.721-3.438,9.077-1.919C421.664,68.746,423.151,71.113,423.045,74.288z"/>
	<path fill="#74787C" d="M98.507,66.812c2.384-0.138,4.196,1.213,5.898,2.918c9.754,9.773,19.571,19.484,29.295,29.287
		c3.917,3.949,4.17,8.153,0.944,11.412c-3.218,3.25-7.565,3.051-11.456-0.794c-9.938-9.824-19.779-19.746-29.681-29.604
		c-2.634-2.624-3.51-5.662-1.96-9.061C92.822,68.177,95.165,66.713,98.507,66.812z"/>
	<path fill="#74787C" d="M336.295,50.3c-2.072,6.045-4.103,13.114-7.994,19.305c-1.979,3.15-5.678,3.453-8.96,1.742
		c-3.282-1.71-4.908-4.692-3.649-8.35c1.994-5.803,4.126-11.583,6.64-17.175c1.644-3.656,5.113-4.765,8.869-3.648
		C334.57,43.177,336.268,45.768,336.295,50.3z"/>
	<path fill="#74787C" d="M198.704,64.113c-0.425,4.138-1.926,6.694-5.091,7.699c-3.046,0.965-6.419,0.653-8.075-2.243
		c-3.619-6.333-6.45-13.113-7.837-20.303c-0.578-2.996,1.283-5.497,4.143-6.754c2.984-1.312,6.324-1.251,8.224,1.424
		C194.534,50.226,196.14,57.817,198.704,64.113z"/>
	<path fill="#74787C" d="M447.711,161.317c-0.337,2.635-1.445,5.086-4.1,6.22c-5.31,2.267-10.651,4.494-16.116,6.335
		c-4.109,1.386-8.104-0.663-9.448-4.226c-1.484-3.935,0.188-7.862,4.464-9.712c4.845-2.097,9.737-4.12,14.736-5.802
		C442.771,152.272,447.874,155.862,447.711,161.317z"/>
	<path fill="#74787C" d="M96.252,165.788c0.155,5.982-4.189,9.684-9.324,8.147c-5.67-1.695-11.221-3.934-16.592-6.433
		c-3.467-1.614-4.998-4.815-3.67-8.727c1.373-4.049,4.518-6.103,8.497-4.901c5.978,1.805,11.771,4.274,17.53,6.726
		C95.139,161.644,96.234,163.975,96.252,165.788z"/>
	<path fill="#FEFEFE" d="M288.227,481.221c-14.593,22.135-48.026,22.133-62.521,0C246.56,481.221,267.154,481.221,288.227,481.221z"
		/>
	<path fill="#FEFEFE" d="M351.854,244.575c0.382-3.402-1.162-4.29-4.152-4.581c-4.465-0.434-8.881-1.396-13.348-1.816
		c-4.479-0.423-6.871-2.852-7.923-7.01c-1.308-5.177-2.856-10.394-5.815-14.78c-4.113-6.095-3.715-11.115,1.169-16.547
		c3.05-3.393,8.095-7.323,7.425-11.169c-0.66-3.783-6.053-6.672-9.188-10.117c-1.694-1.864-2.96-1.971-4.937-0.346
		c-3.725,3.061-7.726,5.784-11.526,8.755c-3.285,2.568-6.606,2.784-10.162,0.672c-4.877-2.896-9.953-5.529-15.492-6.682
		c-6.756-1.406-9.527-5.13-10.178-11.986c-1.395-14.708-1.703-14.63-16.58-14.116c-2.149,0.074-3.23,0.358-3.443,2.855
		c-0.396,4.635-1.309,9.224-1.874,13.848c-0.569,4.646-2.788,7.574-7.558,8.666c-5.191,1.187-10.38,2.868-14.742,5.864
		c-5.979,4.105-10.858,3.392-16.128-1.211c-3.445-3.007-7.401-8.176-11.13-7.462c-3.97,0.761-6.979,6.173-10.584,9.353
		c-1.843,1.625-1.631,2.75-0.21,4.506c3.139,3.88,6.051,7.944,9.056,11.933c2.217,2.943,2.647,6.054,0.753,9.303
		c-3.621,6.21-6.288,12.808-8.193,19.729c-0.937,3.403-3.167,5.33-6.69,5.807c-4.616,0.625-9.208,1.498-13.842,1.912
		c-3.162,0.283-4.876,1.133-4.504,4.774c0.336,3.297,0.295,6.677,0.007,9.984c-0.275,3.148,1.139,3.985,3.935,4.258
		c4.463,0.437,8.876,1.411,13.341,1.799c4.714,0.41,7.168,2.987,8.232,7.326c1.232,5.03,2.755,10.086,5.63,14.319
		c4.254,6.263,3.819,11.479-1.239,16.987c-3,3.27-7.686,7.541-7.239,10.754c0.517,3.715,5.84,6.762,9.076,10.099
		c0.116,0.12,0.236,0.237,0.336,0.369c1.399,1.838,2.693,1.787,4.517,0.29c3.726-3.061,7.739-5.77,11.521-8.764
		c3.438-2.724,6.795-2.846,10.594-0.678c3.305,1.885,6.72,3.756,10.318,4.916c15.255,4.914,13.438,2.286,15.969,20.85
		c0.932,6.837,0.885,6.844,8.002,6.844c2.667,0,5.336-0.105,7.996,0.032c2.009,0.104,2.915-0.396,3.128-2.64
		c0.454-4.8,1.311-9.561,1.951-14.343c0.532-3.957,2.244-6.981,6.365-8.021c6.814-1.713,13.217-4.391,19.27-7.948
		c3.401-2,6.607-1.608,9.717,0.819c3.803,2.969,7.701,5.814,11.568,8.703c0.785,0.586,1.615,1.111,2.534,1.74
		c0.818-0.681,1.621-1.26,2.317-1.945c2.727-2.691,5.279-5.58,8.173-8.074c2.064-1.782,1.699-3.028,0.195-4.877
		c-2.729-3.354-5.05-7.049-7.865-10.32c-3.585-4.162-3.681-8.15-0.759-12.708c2.604-4.062,4.889-8.509,5.671-13.218
		c1.309-7.877,5.854-10.911,13.34-11.223c4.279-0.176,9.935,0.474,12.334-2.428C353.549,254.543,351.358,249,351.854,244.575z
		 M216,196.466c-4.471,0-4.471-6.933,0-6.933S220.471,196.466,216,196.466z"/>
	<path fill="#74787C" d="M256.813,297.99c-26.705-0.053-48.625-22.053-48.467-48.638c0.16-26.748,22.013-48.43,48.754-48.375
		c26.696,0.055,48.592,22.041,48.459,48.662C305.425,276.4,283.604,298.044,256.813,297.99z"/>
</g>
</svg>
